<mxfile host="app.diagrams.net" modified="2024-04-20T01:46:58.401Z" agent="Mozilla/5.0 (Macintosh; Intel Mac OS X 10_15_7) AppleWebKit/605.1.15 (KHTML, like Gecko) Version/16.5.2 Safari/605.1.15" version="24.2.2" etag="8zEPEPi5cZevyvE7e47g" type="github">
  <diagram name="Page-1" id="aPXd8eRDfnjTLt8v-Qk9">
    <mxGraphModel>
      <root>
        <mxCell id="0" />
        <mxCell id="1" parent="0" />
      </root>
    </mxGraphModel>
  </diagram>
</mxfile>
